<svg width="195.248779296875px" height="74.01750488281249px" xmlns="http://www.w3.org/2000/svg" viewBox="152.3756103515625 37.991247558593756 195.248779296875 74.01750488281249" style="background: rgba(0, 0, 0, 0);" preserveAspectRatio="xMidYMid"><defs><filter id="editing-offset"><feFlood flood-color="#f00" flood-opacity="0.5" result="c1"></feFlood><feFlood flood-color="#0f0" flood-opacity="0.5" result="c2"></feFlood><feFlood flood-color="#00f" flood-opacity="0.5" result="c3"></feFlood><feComposite operator="in" in="c1" in2="SourceAlpha" result="text-c1"></feComposite><feComposite operator="in" in="c2" in2="SourceAlpha" result="text-c2"></feComposite><feComposite operator="in" in="c3" in2="SourceAlpha" result="text-c3"></feComposite><feOffset in="text-c1" dx="-10" dy="0" result="text1"></feOffset><feOffset in="text-c2" dx="10" dy="0" result="text2"></feOffset><feOffset in="text-c3" dx="0" dy="0" result="text3"></feOffset><feMerge><feMergeNode in="text1"></feMergeNode><feMergeNode in="text2"></feMergeNode><feMergeNode in="text3"></feMergeNode></feMerge></filter></defs><g filter="url(#editing-offset)"><g transform="translate(187.2034369111061, 90.79374980926514)"><path d="M10.74-11.93L10.74-11.93L10.74-11.93Q11.22-13.19 11.22-14.28L11.22-14.28L11.22-14.28Q11.22-16.29 9.59-16.29L9.59-16.29L9.59-16.29Q8.74-16.29 8.04-15.52L8.04-15.52L8.04-15.52Q7.34-14.76 7.34-13.80L7.34-13.80L7.34-13.80Q7.34-13.12 7.89-12.58L7.89-12.58L7.89-12.58Q8.67-11.83 10.68-10.61L10.68-10.61L10.68-10.61Q12.68-9.38 13.45-8.38L13.45-8.38L13.45-8.38Q14.21-7.38 14.21-6.00L14.21-6.00L14.21-6.00Q14.21-4.62 13.55-3.37L13.55-3.37L13.55-3.37Q12.89-2.11 11.70-1.22L11.70-1.22L11.70-1.22Q9.15 0.68 5.07 0.68L5.07 0.68L5.07 0.68Q2.86 0.68 1.16-0.48L1.16-0.48L1.16-0.48Q-0.54-1.60-0.54-2.92L-0.54-2.92L-0.54-2.92Q-0.54-4.25 0.43-5.03L0.43-5.03L0.43-5.03Q1.39-5.81 2.82-5.81L2.82-5.81L2.82-5.81Q4.25-5.81 5.13-5.27L5.13-5.27L5.13-5.27Q4.69-4.15 4.69-3.40L4.69-3.40L4.69-3.40Q4.69-1.16 6.60-1.16L6.60-1.16L6.60-1.16Q7.41-1.16 7.96-1.67L7.96-1.67L7.96-1.67Q8.50-2.18 8.50-3.06L8.50-3.06L8.50-3.06Q8.50-4.79 5.58-6.63L5.58-6.63L5.58-6.63Q3.20-8.19 2.65-8.81L2.65-8.81L2.65-8.81Q1.73-9.89 1.73-11.25L1.73-11.25L1.73-11.25Q1.73-12.61 2.38-13.91L2.38-13.91L2.38-13.91Q3.03-15.20 4.22-16.12L4.22-16.12L4.22-16.12Q6.70-18.02 11.02-18.02L11.02-18.02L11.02-18.02Q13.23-18.02 14.54-17.14L14.54-17.14L14.54-17.14Q15.84-16.25 15.84-14.76L15.84-14.76L15.84-14.76Q15.84-13.26 14.94-12.41L14.94-12.41L14.94-12.41Q14.04-11.56 12.41-11.56L12.41-11.56L12.41-11.56Q11.29-11.56 10.74-11.93ZM25.26-1.87L25.26-1.87L25.26-1.87Q24.21 0.68 20.84 0.68L20.84 0.68L20.84 0.68Q19.11 0.68 18.02-0.51L18.02-0.51L18.02-0.51Q17.10-1.56 17.10-2.62L17.10-2.62L17.10-2.62Q17.10-5.37 18.36-10.74L18.36-10.74L19.62-17.34L26.52-18.02L24.45-7.28L24.45-7.28Q23.87-4.76 23.87-3.88L23.87-3.88L23.87-3.88Q23.87-1.94 25.26-1.87ZM20.23-22.07L20.23-22.07L20.23-22.07Q20.23-23.39 21.34-24.11L21.34-24.11L21.34-24.11Q22.44-24.82 24.04-24.82L24.04-24.82L24.04-24.82Q25.64-24.82 26.61-24.11L26.61-24.11L26.61-24.11Q27.57-23.39 27.57-22.07L27.57-22.07L27.57-22.07Q27.57-20.74 26.50-20.06L26.50-20.06L26.50-20.06Q25.43-19.38 23.83-19.38L23.83-19.38L23.83-19.38Q22.24-19.38 21.23-20.06L21.23-20.06L21.23-20.06Q20.23-20.74 20.23-22.07ZM42.53 0.68L42.53 0.68L42.53 0.68Q38.42 0.68 38.42-2.52L38.42-2.52L38.42-2.52Q38.45-3.40 38.73-4.90L38.73-4.90L39.34-8.02L39.34-8.02Q40.26-12.44 40.26-13.43L40.26-13.43L40.26-13.43Q40.26-15.40 39.10-15.40L39.10-15.40L39.10-15.40Q37.16-15.40 36.14-10.34L36.14-10.34L34.14 0L27.30 0.68L30.84-17.37L36.41-18.02L35.87-14.69L35.87-14.69Q37.47-18.02 42.36-18.02L42.36-18.02L42.36-18.02Q44.74-18.02 45.75-17.02L45.75-17.02L45.75-17.02Q46.75-16.01 46.75-13.77L46.75-13.77L46.75-13.77Q46.75-11.66 45.66-6.73L45.66-6.73L45.66-6.73Q45.15-4.52 45.15-3.69L45.15-3.69L45.15-3.69Q45.15-2.86 45.61-2.38L45.61-2.38L45.61-2.38Q46.07-1.90 46.75-1.84L46.75-1.84L46.75-1.84Q46.41-0.68 45.24 0L45.24 0L45.24 0Q44.06 0.68 42.53 0.68ZM63.24-5.75L63.24-5.75L63.24-5.75Q64.09-5.17 64.09-3.89L64.09-3.89L64.09-3.89Q64.09-2.62 63.44-1.80L63.44-1.80L63.44-1.80Q62.80-0.99 61.74-0.44L61.74-0.44L61.74-0.44Q59.57 0.68 57.22 0.68L57.22 0.68L57.22 0.68Q54.88 0.68 53.50 0.17L53.50 0.17L53.50 0.17Q52.12-0.34 51.20-1.29L51.20-1.29L51.20-1.29Q49.40-3.09 49.40-6.39L49.40-6.39L49.40-6.39Q49.40-11.53 52.19-14.65L52.19-14.65L52.19-14.65Q55.18-18.02 60.38-18.02L60.38-18.02L60.38-18.02Q63.61-18.02 65.21-16.66L65.21-16.66L65.21-16.66Q66.40-15.64 66.40-13.97L66.40-13.97L66.40-13.97Q66.40-7.99 56.07-7.99L56.07-7.99L56.07-7.99Q55.93-7.11 55.93-6.36L55.93-6.36L55.93-6.36Q55.93-4.79 56.63-4.20L56.63-4.20L56.63-4.20Q57.32-3.60 58.62-3.60L58.62-3.60L58.62-3.60Q59.91-3.60 61.29-4.20L61.29-4.20L61.29-4.20Q62.66-4.79 63.24-5.75ZM56.30-9.45L56.30-9.45L56.30-9.45Q58.72-9.45 60.11-10.95L60.11-10.95L60.11-10.95Q61.51-12.38 61.51-14.65L61.51-14.65L61.51-14.65Q61.51-15.44 61.22-15.86L61.22-15.86L61.22-15.86Q60.93-16.29 60.35-16.29L60.35-16.29L60.35-16.29Q59.77-16.29 59.28-16.07L59.28-16.07L59.28-16.07Q58.79-15.84 58.28-15.10L58.28-15.10L58.28-15.10Q57.02-13.40 56.30-9.45ZM78.20-9.55L78.20-9.55L78.20-9.55Q79.42-11.73 79.42-13.94L79.42-13.94L79.42-13.94Q79.42-15.40 78.37-15.40L78.37-15.40L78.37-15.40Q77.55-15.40 76.70-14.01L76.70-14.01L76.70-14.01Q75.82-12.61 75.55-10.81L75.55-10.81L73.78 0L66.74 0.68L70.21-17.34L75.82-18.02L75.21-14.59L75.21-14.59Q76.87-18.02 80.61-18.02L80.61-18.02L80.61-18.02Q82.59-18.02 83.66-17L83.66-17L83.66-17Q84.73-15.98 84.73-13.89L84.73-13.89L84.73-13.89Q84.73-11.80 83.35-10.47L83.35-10.47L83.35-10.47Q81.97-9.15 79.63-9.15L79.63-9.15L79.63-9.15Q78.61-9.15 78.20-9.55ZM87.69-14.21L87.69-14.21L87.69-14.21Q88.84-15.84 90.59-16.93L90.59-16.93L90.59-16.93Q92.34-18.02 94.49-18.02L94.49-18.02L94.49-18.02Q96.63-18.02 97.65-17.34L97.65-17.34L104.31-18.02L102-4.96L102-4.96Q100.81 1.70 98.29 4.32L98.29 4.32L98.29 4.32Q95.88 6.80 91.19 6.80L91.19 6.80L91.19 6.80Q87.62 6.80 85.58 5.68L85.58 5.68L85.58 5.68Q83.54 4.56 83.54 2.69L83.54 2.69L83.54 2.69Q83.54 1.29 84.59 0.49L84.59 0.49L84.59 0.49Q85.65-0.31 87.28-0.31L87.28-0.31L87.28-0.31Q88.71-0.31 89.79 0.34L89.79 0.34L89.79 0.34Q90.44 0.68 90.75 1.16L90.75 1.16L90.75 1.16Q89.96 1.84 89.96 2.96L89.96 2.96L89.96 2.96Q89.96 4.42 91.32 4.42L91.32 4.42L91.32 4.42Q93.60 4.42 94.89-0.95L94.89-0.95L94.89-0.95Q95.27-2.41 95.57-3.88L95.57-3.88L95.57-3.88Q94.04-2.01 90.58-2.01L90.58-2.01L90.58-2.01Q88.16-2.01 86.77-3.16L86.77-3.16L86.77-3.16Q85.37-4.32 85.37-7.04L85.37-7.04L85.37-7.04Q85.37-8.74 85.95-10.66L85.95-10.66L85.95-10.66Q86.53-12.58 87.69-14.21ZM92.11-6.94L92.11-6.94L92.11-6.94Q92.11-4.62 93.30-4.62L93.30-4.62L93.30-4.62Q94.11-4.62 94.89-5.51L94.89-5.51L94.89-5.51Q95.51-6.22 95.74-7.28L95.74-7.28L97.48-16.01L97.48-16.01Q97.31-16.05 97.14-16.12L97.14-16.12L97.14-16.12Q96.80-16.25 96.36-16.25L96.36-16.25L96.36-16.25Q94.28-16.25 93.06-12.85L93.06-12.85L93.06-12.85Q92.11-10.20 92.11-6.94ZM116.45-3.84L116.45-3.84L116.45-3.84Q114.68-2.01 111.45-2.01L111.45-2.01L111.45-2.01Q107.41-2.01 106.56-4.96L106.56-4.96L106.56-4.96Q106.28-5.85 106.28-6.83L106.28-6.83L106.28-6.83Q106.28-7.82 106.49-8.84L106.49-8.84L108.09-17.34L114.99-18.02L113.12-8.13L113.12-8.13Q113.05-7.68 112.95-7.21L112.95-7.21L112.95-7.21Q112.85-6.73 112.85-6.24L112.85-6.24L112.85-6.24Q112.85-5.75 113.02-5.42L113.02-5.42L113.02-5.42Q113.19-5.10 113.42-4.90L113.42-4.90L113.42-4.90Q113.83-4.62 114.56-4.62L114.56-4.62L114.56-4.62Q115.29-4.62 115.92-5.51L115.92-5.51L115.92-5.51Q116.55-6.39 116.86-7.92L116.86-7.92L118.73-17.34L125.43-18.02L122.88-4.66L122.88-4.66Q121.62 1.87 119.03 4.45L119.03 4.45L119.03 4.45Q117.71 5.78 115.99 6.31L115.99 6.31L115.99 6.31Q114.27 6.83 112.06 6.83L112.06 6.83L112.06 6.83Q108.49 6.83 106.45 5.71L106.45 5.71L106.45 5.71Q104.41 4.59 104.41 2.72L104.41 2.72L104.41 2.72Q104.41 1.33 105.47 0.53L105.47 0.53L105.47 0.53Q106.52-0.27 108.15-0.27L108.15-0.27L108.15-0.27Q109.58-0.27 110.67 0.34L110.67 0.34L110.67 0.34Q111.32 0.71 111.62 1.19L111.62 1.19L111.62 1.19Q110.84 1.87 110.84 2.99L110.84 2.99L110.84 2.99Q110.84 4.49 112.20 4.49L112.20 4.49L112.20 4.49Q114.44 4.49 115.74-0.68L115.74-0.68L115.74-0.68Q116.11-2.21 116.45-3.84Z"></path></g></g><style>text {
  font-size: 64px;
  font-family: Arial Black;
  dominant-baseline: central;
  text-anchor: middle;
}</style></svg>